HIERARCHY
ROOT Root
{
  OFFSET 0.0 0.0 0.0
  CHANNELS 6 Xposition Yposition Zposition Zrotation Yrotation Xrotation
  JOINT Hips
  {
    OFFSET 0.0 100.0 0.0
    CHANNELS 6 Xposition Yposition Zposition Zrotation Yrotation Xrotation
    JOINT Spine1
    {
      OFFSET -0.013727 5.003763 -0.053727
      CHANNELS 3 Zrotation Yrotation Xrotation
      JOINT Spine2
      {
        OFFSET -0.0 7.125301 -0.029825
        CHANNELS 3 Zrotation Yrotation Xrotation
        JOINT Chest
        {
          OFFSET -1e-06 7.550063 -0.815971
          CHANNELS 3 Zrotation Yrotation Xrotation
          JOINT Neck1
          {
            OFFSET -0.181677 26.311295 -0.553348
            CHANNELS 3 Zrotation Yrotation Xrotation
            JOINT Neck2
            {
              OFFSET -3e-06 7.709397 2.302585
              CHANNELS 3 Zrotation Yrotation Xrotation
              JOINT Head
              {
                OFFSET -5e-06 6.128916 1.953709
                CHANNELS 3 Zrotation Yrotation Xrotation
                JOINT HeadEnd
                {
                  OFFSET 0.003598 16.065403 -1.835379
                  CHANNELS 3 Zrotation Yrotation Xrotation
                }
                JOINT Jaw
                {
                  OFFSET 0.002637 0.475592 3.094941
                  CHANNELS 3 Zrotation Yrotation Xrotation
                }
                JOINT LeftEye
                {
                  OFFSET 3.206381 5.380205 7.586883
                  CHANNELS 3 Zrotation Yrotation Xrotation
                }
                JOINT RightEye
                {
                  OFFSET -3.22244 5.361869 7.558234
                  CHANNELS 3 Zrotation Yrotation Xrotation
                }
              }
            }
          }
          JOINT LeftShoulder
          {
            OFFSET 1.621652 23.237164 5.113413
            CHANNELS 3 Zrotation Yrotation Xrotation
            JOINT LeftArm
            {
              OFFSET 14.919846 2e-06 -5.502326
              CHANNELS 3 Zrotation Yrotation Xrotation
              JOINT LeftForeArm
              {
                OFFSET 28.739307 0.0 -0.002588
                CHANNELS 3 Zrotation Yrotation Xrotation
                JOINT LeftHand
                {
                  OFFSET 27.093981 -1e-06 0.002609
                  CHANNELS 3 Zrotation Yrotation Xrotation
                  JOINT LeftHandThumb1
                  {
                    OFFSET 2.276482 -1.392045 3.191413
                    CHANNELS 3 Zrotation Yrotation Xrotation
                    JOINT LeftHandThumb2
                    {
                      OFFSET 4.012836 -1.828127 1.641654
                      CHANNELS 3 Zrotation Yrotation Xrotation
                      JOINT LeftHandThumb3
                      {
                        OFFSET 2.798515 0.0 -3e-06
                        CHANNELS 3 Zrotation Yrotation Xrotation
                        JOINT LeftHandThumbEnd
                        {
                          OFFSET 3.180793 -4e-06 4e-06
                          CHANNELS 3 Zrotation Yrotation Xrotation
                        }
                      }
                    }
                  }
                  JOINT LeftHandIndex1
                  {
                    OFFSET 3.247555 -0.531998 2.296169
                    CHANNELS 3 Zrotation Yrotation Xrotation
                    JOINT LeftHandIndex2
                    {
                      OFFSET 6.364578 0.01206 0.1786
                      CHANNELS 3 Zrotation Yrotation Xrotation
                      JOINT LeftHandIndex3
                      {
                        OFFSET 3.662364 0.0 0.0
                        CHANNELS 3 Zrotation Yrotation Xrotation
                        JOINT LeftHandIndex4
                        {
                          OFFSET 2.329242 4e-06 4e-06
                          CHANNELS 3 Zrotation Yrotation Xrotation
                          JOINT LeftHandIndexEnd
                          {
                            OFFSET 2.759615 -0.180537 -0.113024
                            CHANNELS 3 Zrotation Yrotation Xrotation
                          }
                        }
                      }
                    }
                  }
                  JOINT LeftHandMiddle1
                  {
                    OFFSET 3.163495 0.240981 1.000332
                    CHANNELS 3 Zrotation Yrotation Xrotation
                    JOINT LeftHandMiddle2
                    {
                      OFFSET 6.19078 -0.259278 -1.002548
                      CHANNELS 3 Zrotation Yrotation Xrotation
                      JOINT LeftHandMiddle3
                      {
                        OFFSET 4.35652 -4e-06 -1e-06
                        CHANNELS 3 Zrotation Yrotation Xrotation
                        JOINT LeftHandMiddle4
                        {
                          OFFSET 2.996877 -8e-06 0.0
                          CHANNELS 3 Zrotation Yrotation Xrotation
                          JOINT LeftHandMiddleEnd
                          {
                            OFFSET 2.304287 -0.294569 -0.031741
                            CHANNELS 3 Zrotation Yrotation Xrotation
                          }
                        }
                      }
                    }
                  }
                  JOINT LeftHandRing1
                  {
                    OFFSET 2.882643 -0.053652 -0.322543
                    CHANNELS 3 Zrotation Yrotation Xrotation
                    JOINT LeftHandRing2
                    {
                      OFFSET 5.854541 -0.486202 -1.373841
                      CHANNELS 3 Zrotation Yrotation Xrotation
                      JOINT LeftHandRing3
                      {
                        OFFSET 4.350578 0.0 3e-06
                        CHANNELS 3 Zrotation Yrotation Xrotation
                        JOINT LeftHandRing4
                        {
                          OFFSET 2.651321 7e-06 2e-06
                          CHANNELS 3 Zrotation Yrotation Xrotation
                          JOINT LeftHandRingEnd
                          {
                            OFFSET 1.936105 0.077687 -7.1e-05
                            CHANNELS 3 Zrotation Yrotation Xrotation
                          }
                        }
                      }
                    }
                  }
                  JOINT LeftHandPinky1
                  {
                    OFFSET 2.8655 -0.310005 -1.600378
                    CHANNELS 3 Zrotation Yrotation Xrotation
                    JOINT LeftHandPinky2
                    {
                      OFFSET 5.087849 -1.331141 -1.77123
                      CHANNELS 3 Zrotation Yrotation Xrotation
                      JOINT LeftHandPinky3
                      {
                        OFFSET 3.070974 4e-06 0.0
                        CHANNELS 3 Zrotation Yrotation Xrotation
                        JOINT LeftHandPinky4
                        {
                          OFFSET 1.549672 0.0 1e-06
                          CHANNELS 3 Zrotation Yrotation Xrotation
                          JOINT LeftHandPinkyEnd
                          {
                            OFFSET 1.944893 -0.157802 0.057219
                            CHANNELS 3 Zrotation Yrotation Xrotation
                          }
                        }
                      }
                    }
                  }
                }
              }
            }
          }
          JOINT RightShoulder
          {
            OFFSET -1.380118 23.180309 5.214158
            CHANNELS 3 Zrotation Yrotation Xrotation
            JOINT RightArm
            {
              OFFSET -15.037196 1.2e-05 -5.545604
              CHANNELS 3 Zrotation Yrotation Xrotation
              JOINT RightForeArm
              {
                OFFSET -28.736639 2e-06 -0.002597
                CHANNELS 3 Zrotation Yrotation Xrotation
                JOINT RightHand
                {
                  OFFSET -27.133619 -0.0 0.002613
                  CHANNELS 3 Zrotation Yrotation Xrotation
                  JOINT RightHandThumb1
                  {
                    OFFSET -2.274032 -1.383988 3.163127
                    CHANNELS 3 Zrotation Yrotation Xrotation
                    JOINT RightHandThumb2
                    {
                      OFFSET -4.011429 -1.827466 1.640914
                      CHANNELS 3 Zrotation Yrotation Xrotation
                      JOINT RightHandThumb3
                      {
                        OFFSET -2.794935 -4e-06 -3e-06
                        CHANNELS 3 Zrotation Yrotation Xrotation
                        JOINT RightHandThumbEnd
                        {
                          OFFSET -3.183852 4e-06 1e-06
                          CHANNELS 3 Zrotation Yrotation Xrotation
                        }
                      }
                    }
                  }
                  JOINT RightHandIndex1
                  {
                    OFFSET -3.253266 -0.520057 2.282866
                    CHANNELS 3 Zrotation Yrotation Xrotation
                    JOINT RightHandIndex2
                    {
                      OFFSET -6.341917 0.012471 0.178266
                      CHANNELS 3 Zrotation Yrotation Xrotation
                      JOINT RightHandIndex3
                      {
                        OFFSET -3.654871 -8e-06 -0.0
                        CHANNELS 3 Zrotation Yrotation Xrotation
                        JOINT RightHandIndex4
                        {
                          OFFSET -2.327586 0.0 1e-06
                          CHANNELS 3 Zrotation Yrotation Xrotation
                          JOINT RightHandIndexEnd
                          {
                            OFFSET -2.76179 -0.180656 -0.113078
                            CHANNELS 3 Zrotation Yrotation Xrotation
                          }
                        }
                      }
                    }
                  }
                  JOINT RightHandMiddle1
                  {
                    OFFSET -3.168106 0.246593 1.00103
                    CHANNELS 3 Zrotation Yrotation Xrotation
                    JOINT RightHandMiddle2
                    {
                      OFFSET -6.180828 -0.258836 -1.000895
                      CHANNELS 3 Zrotation Yrotation Xrotation
                      JOINT RightHandMiddle3
                      {
                        OFFSET -4.348901 0.0 -0.0
                        CHANNELS 3 Zrotation Yrotation Xrotation
                        JOINT RightHandMiddle4
                        {
                          OFFSET -3.00024 -4e-06 -2e-06
                          CHANNELS 3 Zrotation Yrotation Xrotation
                          JOINT RightHandMiddleEnd
                          {
                            OFFSET -2.30252 -0.29437 -0.031706
                            CHANNELS 3 Zrotation Yrotation Xrotation
                          }
                        }
                      }
                    }
                  }
                  JOINT RightHandRing1
                  {
                    OFFSET -2.88569 -0.067952 -0.308858
                    CHANNELS 3 Zrotation Yrotation Xrotation
                    JOINT RightHandRing2
                    {
                      OFFSET -5.854198 -0.48613 -1.373731
                      CHANNELS 3 Zrotation Yrotation Xrotation
                      JOINT RightHandRing3
                      {
                        OFFSET -4.33881 -4e-06 -0.0
                        CHANNELS 3 Zrotation Yrotation Xrotation
                        JOINT RightHandRing4
                        {
                          OFFSET -2.654903 -4e-06 4e-06
                          CHANNELS 3 Zrotation Yrotation Xrotation
                          JOINT RightHandRingEnd
                          {
                            OFFSET -1.933568 0.077527 -5.2e-05
                            CHANNELS 3 Zrotation Yrotation Xrotation
                          }
                        }
                      }
                    }
                  }
                  JOINT RightHandPinky1
                  {
                    OFFSET -2.866425 -0.342796 -1.584145
                    CHANNELS 3 Zrotation Yrotation Xrotation
                    JOINT RightHandPinky2
                    {
                      OFFSET -5.091371 -1.332055 -1.772385
                      CHANNELS 3 Zrotation Yrotation Xrotation
                      JOINT RightHandPinky3
                      {
                        OFFSET -3.062664 -4e-06 1e-06
                        CHANNELS 3 Zrotation Yrotation Xrotation
                        JOINT RightHandPinky4
                        {
                          OFFSET -1.546529 4e-06 -2e-06
                          CHANNELS 3 Zrotation Yrotation Xrotation
                          JOINT RightHandPinkyEnd
                          {
                            OFFSET -1.945119 -0.157718 0.057211
                            CHANNELS 3 Zrotation Yrotation Xrotation
                          }
                        }
                      }
                    }
                  }
                }
              }
            }
          }
        }
      }
    }
    JOINT LeftLeg
    {
      OFFSET 10.043214 -8.434526 2.595655
      CHANNELS 3 Zrotation Yrotation Xrotation
      JOINT LeftShin
      {
        OFFSET -1e-06 -43.221752 -0.802913
        CHANNELS 3 Zrotation Yrotation Xrotation
        JOINT LeftFoot
        {
          OFFSET 1e-06 -42.155094 -3.481523
          CHANNELS 3 Zrotation Yrotation Xrotation
          JOINT LeftToeBase
          {
            OFFSET 0.0 -5.059472 13.231529
            CHANNELS 3 Zrotation Yrotation Xrotation
            JOINT LeftToeEnd
            {
              OFFSET -0.009607 -1.647619 6.513017
              CHANNELS 3 Zrotation Yrotation Xrotation
            }
          }
        }
      }
    }
    JOINT RightLeg
    {
      OFFSET -10.047278 -8.29526 2.620317
      CHANNELS 3 Zrotation Yrotation Xrotation
      JOINT RightShin
      {
        OFFSET 1e-06 -43.362206 -0.805556
        CHANNELS 3 Zrotation Yrotation Xrotation
        JOINT RightFoot
        {
          OFFSET 2e-06 -42.117393 -3.478398
          CHANNELS 3 Zrotation Yrotation Xrotation
          JOINT RightToeBase
          {
            OFFSET -0.0 -5.079609 13.284196
            CHANNELS 3 Zrotation Yrotation Xrotation
            JOINT RightToeEnd
            {
              OFFSET 0.009532 -1.634378 6.460591
              CHANNELS 3 Zrotation Yrotation Xrotation
            }
          }
        }
      }
    }
  }
}
MOTION
Frames: 4
Frame Time: 0.03333333333333333
0.0 0.0 0.0 0.0 -0.0 0.0 -15.101322 97.93026 293.13916 -8.91143 4.636646 -6.061226 3.30998 -0.035724 0.661753 0.136632 -1.759069 -4.555466 4.444592 -3.520039 12.722058 4.339087 0.777602 0.695806 -0.947091 -0.709385 -3.522166 -2.192621 -1.295928 -5.378614 7.7e-05 -2.2e-05 6e-06 -0.004781 -0.060616 -0.036344 0.73462 -3.769737 -10.663689 -0.745363 3.653088 -10.652544 -1.192987 -8.181345 10.993396 -72.932236 -9.654999 29.043612 -0.605165 -35.542324 0.258709 15.04837 8.267112 -14.64124 -5.882111 9.861292 0.702591 -10.936879 -0.360573 7.156211 -1e-06 8.77483 -1e-06 -16.167038 18.326418 6.029443 -1.844033 2.498507 -2.50728 -10.163606 4.67895 4.621113 -20.976036 1e-06 3e-06 -21.226301 2.451701 -3.594004 2e-06 -6e-06 -2e-06 -1.362682 2.240801 -0.746323 -21.334929 0.584914 3.008326 -13.821225 -1e-06 2e-06 -23.887188 -0.249075 -0.839484 -60.352448 2.63278 -0.776729 -0.294024 1.679688 0.833256 -14.218218 0.093217 1.300582 -34.212074 -0.287559 0.96717 -20.033226 0.964539 1.212844 1e-06 -0.0 -2e-06 -3.44039 0.788234 0.501656 -15.928196 -3.167308 2.999709 -6.33883 -0.0 2e-06 -18.123457 3.648189 -4.905674 -4e-06 0.0 -2e-06 22.803877 7.185435 13.290541 66.652916 -10.794186 -12.341461 0.931895 43.203186 1.003031 -10.823274 -9.289639 -14.292204 2.24354 -5.255036 -3.180157 14.282887 -0.826594 6.952504 -3e-06 -12.690601 1e-06 15.961399 -17.815458 2.946476 1.665666 -1.955921 -2.878298 4.727797 -4.170586 4.993923 11.020522 3e-06 0.0 12.109049 -3.735715 -2.866782 -2e-06 0.0 -0.0 1.291985 -1.928549 -1.498089 14.800127 0.567469 3.86561 14.242568 -1.341734 -6.660654 19.631962 0.143926 -0.64824 50.188145 -0.548395 -6.32082 0.353029 -1.51115 -0.03194 20.222788 3.684309 2.316634 18.78727 4e-06 3e-06 10.751625 -0.479869 1.397908 -1e-06 -1e-06 -0.0 3.273805 0.305948 -0.580111 21.486809 11.830372 2.266137 8.162926 1e-06 1e-06 18.39908 -3.798986 -4.940569 3e-06 0.0 -1e-06 11.293607 -2.897998 -4.481299 -0.031984 -0.110979 69.013649 0.978286 18.042336 13.942633 2.276094 -2.058597 -4.620252 -0.0 0.0 3e-06 15.629898 -3.470264 -3.817615 -0.084252 -0.414363 8.645611 -8.312398 -15.643577 0.356104 -1.401187 0.845931 -0.014038 -0.0 -0.0 -1e-06 
0.0 0.0 0.0 0.0 -0.0 0.0 -15.384449 98.346405 297.703064 -7.393083 3.813423 -6.501672 2.876871 0.1605 1.239837 -0.026717 -1.15986 -4.30479 3.542374 -3.023129 12.670213 4.21082 0.848823 1.268081 -0.848327 -0.607359 -3.486793 -1.901486 -1.386177 -5.706185 7.7e-05 -2.3e-05 6e-06 -0.002979 -0.055617 -0.023314 0.730991 -3.773951 -10.682283 -0.739587 3.666763 -10.67583 -0.955683 -7.746292 11.329711 -73.39769 -7.669072 29.64967 -0.734721 -34.115448 0.345153 13.860027 8.297989 -14.671979 -5.882105 9.861285 0.702591 -10.93687 -0.360576 7.156205 1e-06 8.774824 -3e-06 -16.25651 18.286871 5.980685 -1.844032 2.498504 -2.507277 -10.163597 4.678944 4.621107 -20.976021 -4e-06 4e-06 -21.226286 2.451696 -3.594 0.0 -7e-06 0.0 -1.362682 2.240798 -0.746324 -21.334913 0.58491 3.008324 -13.821213 -3e-06 1e-06 -23.887167 -0.249079 -0.839483 -60.417641 2.681143 -0.830525 -0.294025 1.679688 0.833256 -14.218207 0.093215 1.300579 -34.212048 -0.287566 0.96717 -20.033209 0.964534 1.212844 -0.0 0.0 0.0 -3.440387 0.788233 0.501655 -15.928183 -3.16731 2.999705 -6.338825 -1e-06 0.0 -18.123444 3.648183 -4.905669 -4e-06 0.0 -2e-06 21.290178 7.903857 13.540946 66.851913 -8.720756 -10.22294 0.670404 45.540047 0.880106 -11.056181 -9.620872 -13.834595 2.243542 -5.255037 -3.180158 14.282895 -0.826596 6.952503 -2e-06 -12.690607 1e-06 15.988741 -17.8934 2.905304 1.665666 -1.955921 -2.878299 4.727799 -4.170588 4.993924 11.020529 2e-06 -0.0 12.109056 -3.735717 -2.866785 -2e-06 0.0 1e-06 1.291986 -1.92855 -1.498089 14.800129 0.567468 3.865607 14.242576 -1.341737 -6.660657 19.631969 0.143925 -0.648244 50.155323 -0.56612 -6.375095 0.353029 -1.51115 -0.03194 20.222797 3.68431 2.316631 18.787275 4e-06 -1e-06 10.751629 -0.479868 1.397907 -1e-06 -1e-06 0.0 3.273808 0.305947 -0.580111 21.486816 11.830373 2.266133 8.162929 1e-06 -0.0 18.399084 -3.798987 -4.940577 3e-06 0.0 -2e-06 8.710562 -3.782266 -10.199832 0.052305 0.173816 70.61441 1.162312 18.360779 10.450131 2.176905 -2.08842 -4.614601 -0.0 -1e-06 2e-06 14.359761 -3.116071 1.523494 -0.049327 -0.369602 5.661954 -7.980105 -15.718132 -1.354563 -1.402209 0.828736 0.362609 -0.0 -0.0 -1e-06 
0.0 0.0 0.0 0.0 -0.0 0.0 -15.601388 98.56665 302.181549 -5.649045 2.470309 -6.645119 2.374786 0.373399 1.700592 -0.167327 -0.462689 -4.090284 2.570653 -2.461751 12.543536 3.730861 1.058732 1.807582 -0.747841 -0.442337 -3.497146 -1.459599 -1.360954 -5.916203 7.7e-05 -2.2e-05 6e-06 -0.001473 -0.053533 -0.015697 0.725944 -3.779028 -10.686619 -0.733089 3.67458 -10.686578 -1.182428 -7.232959 11.712296 -73.397583 -5.320834 29.479605 -0.910299 -33.418743 0.415313 12.808512 8.400015 -14.711137 -5.882109 9.861292 0.70259 -10.936875 -0.360574 7.156209 -0.0 8.77483 0.0 -16.32439 18.189087 5.960618 -1.844033 2.498506 -2.507279 -10.163603 4.678948 4.621112 -20.97603 -1e-06 2e-06 -21.226297 2.451699 -3.594003 0.0 -7e-06 -1e-06 -1.362682 2.240799 -0.746324 -21.334925 0.584912 3.008324 -13.82122 -2e-06 3e-06 -23.887178 -0.249077 -0.839484 -60.603565 2.696168 -0.852278 -0.294026 1.679688 0.833256 -14.218214 0.093216 1.300581 -34.212055 -0.287562 0.967168 -20.03322 0.964537 1.212843 1e-06 -0.0 -1e-06 -3.44039 0.788234 0.501655 -15.928192 -3.16731 2.999708 -6.338829 -0.0 1e-06 -18.123455 3.648186 -4.905675 -4e-06 0.0 -1e-06 19.378881 8.861606 13.699642 67.46759 -6.482759 -8.583258 0.338939 48.14238 0.585162 -11.442506 -9.963684 -13.726296 2.243543 -5.255042 -3.180157 14.282896 -0.826594 6.9525 -3e-06 -12.690614 0.0 16.020546 -17.932686 2.877383 1.665667 -1.955922 -2.878299 4.727798 -4.170589 4.993924 11.020529 4e-06 -3e-06 12.109056 -3.735716 -2.866786 -0.0 0.0 1e-06 1.291986 -1.92855 -1.498089 14.800132 0.567469 3.865605 14.242577 -1.341734 -6.660661 19.631973 0.14393 -0.648246 50.18367 -0.605245 -6.360199 0.353029 -1.511152 -0.03194 20.222795 3.684315 2.316627 18.787275 7e-06 -3e-06 10.751627 -0.479866 1.397906 1e-06 0.0 -1e-06 3.273808 0.305946 -0.580112 21.48682 11.830386 2.266131 8.16293 4e-06 -2e-06 18.399084 -3.798985 -4.940578 4e-06 1e-06 -1e-06 6.002777 -4.382062 -15.361793 0.179538 0.376331 68.408371 0.707863 18.617189 8.05145 2.072791 -2.119269 -4.241993 -0.0 0.0 1e-06 12.781242 -2.579924 5.867157 -0.033014 -0.308042 3.833305 -7.461522 -15.439008 -3.164512 -1.409071 0.788502 0.684841 -0.0 -0.0 -1e-06 
0.0 0.0 0.0 0.0 -0.0 0.0 -15.757005 98.591637 306.554047 -3.925616 0.709768 -6.531387 1.891592 0.561721 1.989333 -0.282094 0.278704 -3.940772 1.663671 -1.890811 12.469518 2.935856 1.412579 2.112674 -0.651204 -0.219129 -3.545547 -1.038531 -1.264018 -5.994591 7.7e-05 -2.2e-05 6e-06 0.001329 -0.043122 -0.015184 0.716742 -3.768522 -10.665264 -0.719974 3.683173 -10.674555 -1.902664 -6.577652 12.094101 -72.94091 -2.866322 28.93257 -1.008494 -33.343899 0.420744 11.781331 8.619702 -14.997252 -5.88211 9.861288 0.702589 -10.936879 -0.360576 7.156209 1e-06 8.774827 -1e-06 -16.37908 18.084925 5.972373 -1.844034 2.498504 -2.507279 -10.163607 4.678945 4.62111 -20.976038 -5e-06 3e-06 -21.226301 2.451696 -3.593999 -0.0 -7e-06 -0.0 -1.362683 2.240798 -0.746326 -21.33493 0.584907 3.008325 -13.821225 -4e-06 3e-06 -23.887188 -0.249081 -0.839482 -60.884621 2.715432 -0.821733 -0.294026 1.679688 0.833256 -14.218219 0.093213 1.300581 -34.212074 -0.287565 0.967173 -20.03323 0.964537 1.212846 1e-06 -1e-06 -1e-06 -3.440391 0.788234 0.501656 -15.9282 -3.167311 2.999708 -6.338831 -2e-06 1e-06 -18.123459 3.648182 -4.905671 -3e-06 1e-06 -1e-06 17.395344 10.00266 13.783338 68.219986 -4.085023 -7.579161 0.096268 50.800774 0.215512 -11.996958 -10.171797 -13.794038 2.243543 -5.255039 -3.180157 14.282897 -0.826594 6.952503 -3e-06 -12.690609 0.0 16.042849 -17.932766 2.843085 1.665667 -1.955922 -2.8783 4.727801 -4.170588 4.993925 11.020532 4e-06 -2e-06 12.109058 -3.735717 -2.866785 -0.0 1e-06 0.0 1.291986 -1.92855 -1.49809 14.800136 0.567469 3.865607 14.24258 -1.341736 -6.66066 19.631981 0.143928 -0.648246 50.220383 -0.630965 -6.290451 0.35303 -1.511151 -0.03194 20.222801 3.684314 2.316629 18.787283 7e-06 -2e-06 10.751634 -0.479868 1.397905 1e-06 0.0 -0.0 3.273808 0.305947 -0.580111 21.486824 11.830382 2.266131 8.16293 1e-06 -2e-06 18.399088 -3.798985 -4.94058 3e-06 -0.0 -1e-06 3.589079 -4.664859 -19.658165 0.309809 0.469943 62.480236 0.290714 19.31324 6.982482 2.007811 -2.163294 -3.77395 0.0 -0.0 1e-06 11.097285 -1.94411 9.31004 -0.04599 -0.246209 2.877061 -6.9638 -14.806538 -5.126977 -1.42023 0.742704 0.926505 -0.0 -0.0 -1e-06 
